<svg width="27" height="26" viewBox="0 0 27 26" fill="none" xmlns="http://www.w3.org/2000/svg">
<path d="M24.9748 26H23.3619V23.6023C23.3619 22.9664 23.107 22.3565 22.6533 21.9069C22.1996 21.4572 21.5842 21.2046 20.9425 21.2046H17.7167C17.0751 21.2046 16.4597 21.4572 16.006 21.9069C15.5523 22.3565 15.2974 22.9664 15.2974 23.6023V26H13.6845V23.6023C13.6845 22.5425 14.1093 21.526 14.8655 20.7766C15.6217 20.0272 16.6473 19.6061 17.7167 19.6061H20.9425C22.012 19.6061 23.0376 20.0272 23.7938 20.7766C24.55 21.526 24.9748 22.5425 24.9748 23.6023V26ZM19.3296 11.6138C19.8081 11.6138 20.2759 11.7544 20.6738 12.0179C21.0716 12.2814 21.3817 12.6558 21.5648 13.0939C21.7479 13.5321 21.7959 14.0142 21.7025 14.4793C21.6092 14.9444 21.3787 15.3716 21.0404 15.7069C20.702 16.0423 20.2709 16.2706 19.8016 16.3631C19.3323 16.4557 18.8459 16.4082 18.4038 16.2267C17.9617 16.0452 17.5839 15.7379 17.318 15.3436C17.0522 14.9493 16.9103 14.4857 16.9103 14.0115C16.9103 13.3756 17.1652 12.7657 17.6189 12.3161C18.0726 11.8664 18.688 11.6138 19.3296 11.6138ZM19.3296 10.0153C18.5321 10.0153 17.7525 10.2497 17.0894 10.6888C16.4263 11.1279 15.9095 11.752 15.6043 12.4822C15.2991 13.2124 15.2193 14.0159 15.3749 14.7911C15.5304 15.5663 15.9145 16.2784 16.4784 16.8372C17.0423 17.3961 17.7608 17.7767 18.543 17.9309C19.3252 18.0851 20.1359 18.0059 20.8727 17.7035C21.6095 17.401 22.2393 16.8888 22.6823 16.2317C23.1254 15.5745 23.3619 14.8019 23.3619 14.0115C23.3619 12.9517 22.9371 11.9352 22.1809 11.1858C21.4247 10.4364 20.3991 10.0153 19.3296 10.0153V10.0153ZM12.0716 19.6061H10.4587V17.2084C10.4587 16.5725 10.2038 15.9627 9.75006 15.513C9.29634 15.0634 8.68097 14.8107 8.03931 14.8107H4.81351C4.17186 14.8107 3.55648 15.0634 3.10277 15.513C2.64905 15.9627 2.39415 16.5725 2.39415 17.2084V19.6061H0.78125V17.2084C0.78125 16.1486 1.20608 15.1322 1.96227 14.3827C2.71847 13.6333 3.74409 13.2123 4.81351 13.2123H8.03931C9.10874 13.2123 10.1344 13.6333 10.8906 14.3827C11.6467 15.1322 12.0716 16.1486 12.0716 17.2084V19.6061ZM6.42641 5.21995C6.90491 5.21995 7.37267 5.36057 7.77053 5.62403C8.16839 5.8875 8.47849 6.26197 8.6616 6.70009C8.84472 7.13821 8.89263 7.62031 8.79928 8.08541C8.70593 8.55052 8.47551 8.97775 8.13715 9.31308C7.7988 9.6484 7.36771 9.87676 6.8984 9.96927C6.4291 10.0618 5.94264 10.0143 5.50056 9.83283C5.05849 9.65136 4.68063 9.34404 4.41479 8.94974C4.14895 8.55544 4.00706 8.09187 4.00706 7.61765C4.00706 6.98174 4.26195 6.37187 4.71567 5.92222C5.16939 5.47256 5.78476 5.21995 6.42641 5.21995V5.21995ZM6.42641 3.62148C5.62891 3.62148 4.84931 3.85585 4.18621 4.29496C3.52311 4.73406 3.00628 5.35818 2.70109 6.08838C2.3959 6.81858 2.31605 7.62208 2.47163 8.39726C2.62722 9.17244 3.01125 9.88449 3.57517 10.4434C4.1391 11.0022 4.85758 11.3828 5.63976 11.537C6.42194 11.6912 7.23269 11.6121 7.96949 11.3096C8.70629 11.0072 9.33604 10.495 9.77911 9.8378C10.2222 9.18063 10.4587 8.40801 10.4587 7.61765C10.4587 6.5578 10.0338 5.54136 9.27765 4.79193C8.52145 4.04251 7.49583 3.62148 6.42641 3.62148V3.62148Z" fill="white"/>
<path d="M23.1994 6.11509V1M20.62 3.55634H25.7813" stroke="white" stroke-linecap="round"/>
</svg>
