<svg width="42" height="45" viewBox="0 0 42 45" fill="none" xmlns="http://www.w3.org/2000/svg">
<path d="M30.5869 7.5V4.02C30.5869 1.8 28.7869 0 26.5669 0H14.6831C14.1484 0.000120907 13.619 0.107035 13.1261 0.31447C12.6332 0.521906 12.1867 0.825685 11.8128 1.20799C11.4389 1.59029 11.1451 2.04341 10.9486 2.54078C10.7522 3.03815 10.657 3.56974 10.6687 4.10437V4.10063V7.5H0V11.25H1.07812C1.44562 11.2931 1.77563 11.4356 2.04375 11.6513L2.04 11.6475C2.26313 11.9419 2.42063 12.2962 2.48813 12.6825L2.49 12.6975L4.71563 41.0213C4.89188 44.4713 4.89187 44.9925 8.93437 44.9925H32.3006C36.3506 44.9925 36.3506 44.4769 36.5194 41.0306L38.745 12.7181C38.8125 12.3113 38.97 11.9513 39.1987 11.6456L39.195 11.6513C39.4687 11.4317 39.7989 11.2939 40.1475 11.2537H41.235V7.50375H30.5719L30.5869 7.5ZM13.125 4.10063C13.125 2.97563 14.0381 2.34187 15.1987 2.34187H25.95C27.1088 2.34187 28.1287 2.98688 28.1287 4.10063V7.5H13.1287L13.125 4.10063ZM12.1294 37.5L10.9294 15H13.3088L14.5388 37.5H12.1294ZM21.9263 37.5H19.35V15H21.9281L21.9263 37.5ZM29.145 37.5H26.7544L27.9844 15H30.3638L29.145 37.5Z" fill="white"/>
</svg>
